<svg xmlns="http://www.w3.org/2000/svg" viewBox="0 0 400 80" fill="none">
  <defs>
    <linearGradient id="saffron" x1="0%" y1="0%" x2="100%" y2="0%">
      <stop offset="0%" style="stop-color:#FF9933"/>
      <stop offset="100%" style="stop-color:#FFB366"/>
    </linearGradient>
    <linearGradient id="green" x1="0%" y1="0%" x2="100%" y2="0%">
      <stop offset="0%" style="stop-color:#138808"/>
      <stop offset="100%" style="stop-color:#1AAF0A"/>
    </linearGradient>
  </defs>
  <!-- Tricolor bar -->
  <rect x="0" y="0" width="400" height="8" rx="4" fill="url(#saffron)"/>
  <rect x="0" y="36" width="400" height="8" rx="4" fill="#FFFFFF"/>
  <rect x="0" y="72" width="400" height="8" rx="4" fill="url(#green)"/>
  <!-- Ashoka Chakra -->
  <circle cx="40" cy="40" r="22" fill="none" stroke="#000080" stroke-width="2.5"/>
  <circle cx="40" cy="40" r="5" fill="#000080"/>
  <!-- 24 spokes -->
  <g stroke="#000080" stroke-width="1.5">
    <line x1="40" y1="18" x2="40" y2="25"/>
    <line x1="40" y1="55" x2="40" y2="62"/>
    <line x1="18" y1="40" x2="25" y2="40"/>
    <line x1="55" y1="40" x2="62" y2="40"/>
    <line x1="24.4" y1="24.4" x2="29.3" y2="29.3"/>
    <line x1="50.7" y1="50.7" x2="55.6" y2="55.6"/>
    <line x1="24.4" y1="55.6" x2="29.3" y2="50.7"/>
    <line x1="50.7" y1="29.3" x2="55.6" y2="24.4"/>
    <line x1="40" y1="18" x2="40" y2="25" transform="rotate(15 40 40)"/>
    <line x1="40" y1="18" x2="40" y2="25" transform="rotate(30 40 40)"/>
    <line x1="40" y1="18" x2="40" y2="25" transform="rotate(45 40 40)"/>
    <line x1="40" y1="18" x2="40" y2="25" transform="rotate(60 40 40)"/>
    <line x1="40" y1="18" x2="40" y2="25" transform="rotate(75 40 40)"/>
    <line x1="40" y1="18" x2="40" y2="25" transform="rotate(105 40 40)"/>
    <line x1="40" y1="18" x2="40" y2="25" transform="rotate(120 40 40)"/>
    <line x1="40" y1="18" x2="40" y2="25" transform="rotate(135 40 40)"/>
    <line x1="40" y1="18" x2="40" y2="25" transform="rotate(150 40 40)"/>
    <line x1="40" y1="18" x2="40" y2="25" transform="rotate(165 40 40)"/>
    <line x1="40" y1="18" x2="40" y2="25" transform="rotate(195 40 40)"/>
    <line x1="40" y1="18" x2="40" y2="25" transform="rotate(210 40 40)"/>
    <line x1="40" y1="18" x2="40" y2="25" transform="rotate(225 40 40)"/>
    <line x1="40" y1="18" x2="40" y2="25" transform="rotate(240 40 40)"/>
    <line x1="40" y1="18" x2="40" y2="25" transform="rotate(255 40 40)"/>
    <line x1="40" y1="18" x2="40" y2="25" transform="rotate(285 40 40)"/>
    <line x1="40" y1="18" x2="40" y2="25" transform="rotate(300 40 40)"/>
    <line x1="40" y1="18" x2="40" y2="25" transform="rotate(315 40 40)"/>
    <line x1="40" y1="18" x2="40" y2="25" transform="rotate(330 40 40)"/>
    <line x1="40" y1="18" x2="40" y2="25" transform="rotate(345 40 40)"/>
  </g>
  <!-- Text -->
  <text x="80" y="32" font-family="Georgia, serif" font-size="22" font-weight="bold" fill="#000080">Disaster Relief</text>
  <text x="80" y="56" font-family="Georgia, serif" font-size="16" fill="#333333">Coordination Platform</text>
</svg>
